<svg width="10992" height="8496" viewBox="0 0 10992 8496" fill="none" xmlns="http://www.w3.org/2000/svg">
<path fill-rule="evenodd" clip-rule="evenodd" d="M2128 7824C2746.26 7824 3302.94 7566.29 3691.73 7154.77C4066.49 7748.38 4737.98 8144 5504 8144C6110.79 8144 6658.26 7895.76 7045.92 7497.51C7419.52 8096.26 8094 8496 8864 8496C10039.3 8496 10992 7564.75 10992 6416C10992 5799.09 10717.2 5244.91 10280.8 4864C10717.2 4483.09 10992 3928.91 10992 3312C10992 2163.25 10039.3 1232 8864 1232C8732.89 1232 8604.55 1243.59 8480 1265.78C8431.71 1257.18 8382.86 1250.17 8333.5 1244.81C8004.38 511.898 7255.35 0 6384 0C5993.16 0 5626.93 102.992 5312.17 282.719C5091.77 213.594 4854.79 176 4608 176C3432.74 176 2480 1028.45 2480 2080C2480 2085.6 2480.03 2091.19 2480.08 2096.78C1792.36 2409.23 1303.97 3070.25 1252.5 3847.63C513.934 4173.91 0 4900.29 0 5744C0 6892.75 952.738 7824 2128 7824Z" fill="#2BB964"/>
</svg>
